<?xml version="1.0" encoding="utf-8"?>
<!-- Generator: Adobe Illustrator 27.0.1, SVG Export Plug-In . SVG Version: 6.00 Build 0)  -->
<svg version="1.1" id="Layer_1" xmlns="http://www.w3.org/2000/svg" xmlns:xlink="http://www.w3.org/1999/xlink" x="0px" y="0px"
	 viewBox="0 0 547.2 550" style="enable-background:new 0 0 547.2 550;" xml:space="preserve">
<style type="text/css">
	.st0{fill:#FFFFFF;}
</style>
<g>
	<path class="st0" d="M272.52,22.16C132.7,22.16,19.37,135.5,19.37,275.31S132.7,528.46,272.52,528.46s253.15-113.34,253.15-253.15
		S412.33,22.16,272.52,22.16z M272.52,503.24c-125.68,0-227.93-102.25-227.93-227.93S146.83,47.38,272.52,47.38
		s227.93,102.25,227.93,227.93S398.2,503.24,272.52,503.24z"/>
	<path class="st0" d="M272.52,52.37c-122.93,0-222.95,100.01-222.95,222.95s100.01,222.95,222.95,222.95
		s222.95-100.01,222.95-222.95S395.45,52.37,272.52,52.37z M272.52,88.52c22.47,0,40.68,18.22,40.68,40.68
		c0,22.47-18.22,40.68-40.68,40.68c-22.47,0-40.68-18.22-40.68-40.68C231.83,106.73,250.05,88.52,272.52,88.52z M379.31,223.96
		c-16.79,5.04-57.08,19.73-58.13,23.72c-2.31,9.02-0.42,18.89-0.21,25.6c0.21,6.72,12.38,77.86,12.38,77.86s16.58,82.9,16.58,89.82
		c0,6.93-4.83,20.36-21.83,20.36c-17,0-21.83-11.33-24.34-23.09c-14.9-82.27-22.88-100.53-22.88-100.53s-5.04-15.32-8.22-15.32
		c-3.18,0-9.62,15.32-9.62,15.32c-9.86,24.97-18.78,86.15-22.88,104.1c-4.09,17.94-16.37,22.35-28.65,19.52
		c-12.28-2.83-18.26-12.28-15.43-29.91c7.24-25.18,26.23-145.75,28.96-168c2.73-22.25-13.64-25.18-13.64-25.18
		s-35.68-11.33-54.36-16.79c-19.94-6.3-29.17-13.64-29.17-13.64s-11.96-7.35-5.04-24.34s25.39-11.33,25.39-11.33
		s70.31,22.67,121.72,22.67s130.33-23.3,130.33-23.3s16.58-4.83,22.67,14.27C431.78,212.2,396.1,218.92,379.31,223.96z"/>
</g>
</svg>
