<?xml version="1.0" encoding="utf-8"?>
<!-- Generator: Adobe Illustrator 27.0.1, SVG Export Plug-In . SVG Version: 6.00 Build 0)  -->
<svg version="1.1" id="Layer_1" xmlns="http://www.w3.org/2000/svg" xmlns:xlink="http://www.w3.org/1999/xlink" x="0px" y="0px"
	 viewBox="0 0 56.49 65.73" style="enable-background:new 0 0 56.49 65.73;" xml:space="preserve">
<style type="text/css">
	.st0{fill:#FFFFFF;}
</style>
<g>
	<path d="M29.19,39.4c-1.38,0-2.56-0.49-3.54-1.47c-0.98-0.98-1.47-2.16-1.47-3.54c0-1.38,0.49-2.56,1.47-3.54
		c0.98-0.98,2.16-1.47,3.54-1.47c1.38,0,2.56,0.49,3.54,1.47c0.98,0.98,1.47,2.16,1.47,3.54c0,1.38-0.49,2.56-1.47,3.54
		C31.75,38.91,30.57,39.4,29.19,39.4z M29.19,58.43c-6.68,0-12.35-2.35-17.02-7.04S5.16,41,5.16,34.33h4.01
		c0,5.56,1.95,10.3,5.84,14.22s8.62,5.87,14.19,5.87c5.58,0,10.31-1.94,14.2-5.83c3.89-3.89,5.83-8.62,5.83-14.2
		s-1.94-10.31-5.83-14.2c-3.89-3.89-8.62-5.83-14.2-5.83c-3.07,0-5.94,0.68-8.61,2.04s-5.01,3.19-7.01,5.51h6.94v4.01H6.63V12.03
		h4.01v7.08c2.36-2.76,5.14-4.91,8.36-6.44s6.61-2.3,10.2-2.3c3.34,0,6.46,0.63,9.38,1.9c2.91,1.27,5.45,2.98,7.61,5.14
		s3.87,4.7,5.14,7.61s1.9,6.04,1.9,9.38s-0.63,6.46-1.9,9.38s-2.98,5.45-5.14,7.61c-2.16,2.16-4.7,3.87-7.61,5.14
		C35.66,57.79,32.53,58.43,29.19,58.43z"/>
	<circle class="st0" cx="28.6" cy="35.02" r="8.68"/>
</g>
<path d="M29.19,46.27c-2.75,0-5.1-0.95-7.06-2.86s-2.94-4.23-2.94-6.98c0-1.38,0.26-2.65,0.78-3.83c0.52-1.18,1.24-2.22,2.16-3.14
	l7.06-6.94l7.06,6.94c0.92,0.92,1.64,1.96,2.16,3.14c0.52,1.18,0.78,2.45,0.78,3.83c0,2.73-0.97,5.05-2.92,6.97
	C34.32,45.31,31.96,46.27,29.19,46.27z M29.19,44.39V25.14l-5.81,5.72c-0.75,0.75-1.32,1.58-1.72,2.5s-0.59,1.94-0.59,3.06
	c0,2.23,0.8,4.11,2.39,5.66S26.96,44.39,29.19,44.39z"/>
</svg>
